<svg width="139" height="142" viewBox="0 0 139 142" fill="none" xmlns="http://www.w3.org/2000/svg">
<path id="Vector" d="M69.6409 0.510986C52.4717 0.510986 36.8059 6.94922 24.7184 17.5315L39.8033 32.9401C47.9892 26.2563 58.3454 22.2294 69.6409 22.2294C80.9364 22.2294 91.2925 26.2563 99.4785 32.9401L114.563 17.5315C102.476 6.94922 86.8101 0.510986 69.6409 0.510986ZM17.2019 25.2093C6.84192 37.5562 0.53894 53.5582 0.53894 71.0958C0.53894 110.08 31.4753 141.681 69.6409 141.681C107.806 141.681 138.743 110.08 138.743 71.0958C138.743 53.5582 132.44 37.5562 122.08 25.2093L106.995 40.6179C113.538 48.9795 117.481 59.5579 117.481 71.0958C117.481 78.9855 115.612 86.4187 112.362 93.0157L85.6186 65.698C85.6186 65.698 74.8342 49.3774 74.9564 49.3774V81.955L100.683 108.233C92.3244 115.531 81.4997 119.962 69.6409 119.962C57.782 119.962 46.9574 115.531 38.599 108.233L64.3253 81.955V49.3774C64.4476 49.3774 53.6631 65.698 53.6631 65.698L26.9194 93.0157C23.6693 86.4187 21.8011 78.9855 21.8011 71.0958C21.8011 59.5579 25.7434 48.9795 32.2868 40.6179L17.2019 25.2093Z" fill="#F31818"/>
</svg>
